<svg width="16" height="16" viewBox="0 0 16 16" fill="none" xmlns="http://www.w3.org/2000/svg">
<path d="M9.36455 15.5H6.63455C6.4635 15.5 6.29757 15.4416 6.1643 15.3344C6.03102 15.2271 5.9384 15.0776 5.9018 14.9105L5.59655 13.4975C5.18934 13.3191 4.80322 13.096 4.4453 12.8323L3.06755 13.271C2.90447 13.323 2.72851 13.3177 2.56889 13.2559C2.40926 13.1941 2.27559 13.0795 2.19005 12.9313L0.822047 10.568C0.737406 10.4196 0.705634 10.2469 0.731929 10.0781C0.758224 9.90926 0.841029 9.75437 0.966797 9.63875L2.03555 8.66375C1.98694 8.22208 1.98694 7.77642 2.03555 7.33475L0.966797 6.362C0.840851 6.24633 0.757933 6.09131 0.731634 5.92234C0.705335 5.75337 0.737214 5.58048 0.822047 5.432L2.18705 3.06725C2.27259 2.91899 2.40627 2.80444 2.56589 2.74264C2.72551 2.68084 2.90147 2.6755 3.06455 2.7275L4.4423 3.16625C4.6253 3.03125 4.8158 2.90525 5.0123 2.79125C5.20205 2.68475 5.39705 2.588 5.59655 2.50175L5.90255 1.09025C5.93898 0.923148 6.03142 0.773516 6.16456 0.666162C6.29769 0.558807 6.46352 0.50018 6.63455 0.5H9.36455C9.53557 0.50018 9.7014 0.558807 9.83454 0.666162C9.96767 0.773516 10.0601 0.923148 10.0965 1.09025L10.4055 2.5025C10.8125 2.68092 11.1984 2.90404 11.556 3.16775L12.9345 2.729C13.0975 2.67719 13.2733 2.68263 13.4328 2.74442C13.5922 2.80621 13.7258 2.92065 13.8113 3.06875L15.1763 5.4335C15.3503 5.73875 15.2903 6.125 15.0315 6.36275L13.9628 7.33775C14.0114 7.77942 14.0114 8.22508 13.9628 8.66675L15.0315 9.64175C15.2903 9.88025 15.3503 10.2657 15.1763 10.571L13.8113 12.9357C13.7258 13.084 13.5921 13.1986 13.4325 13.2604C13.2728 13.3222 13.0969 13.3275 12.9338 13.2755L11.556 12.8368C11.1984 13.1003 10.8125 13.3231 10.4055 13.5012L10.0965 14.9105C10.06 15.0775 9.96746 15.2269 9.83434 15.3341C9.70122 15.4413 9.53547 15.4999 9.36455 15.5ZM4.71455 11.1718L5.32955 11.6217C5.4683 11.7238 5.6123 11.8175 5.7623 11.903C5.9033 11.9848 6.0473 12.0583 6.19655 12.125L6.8963 12.4318L7.23905 14H8.76155L9.1043 12.431L9.80405 12.1243C10.1093 11.9893 10.3995 11.822 10.6688 11.6248L11.2838 11.1747L12.8153 11.6622L13.5765 10.3438L12.3893 9.2615L12.4733 8.5025C12.5108 8.17025 12.5108 7.835 12.4733 7.5035L12.3893 6.7445L13.5773 5.66L12.8153 4.34075L11.2845 4.82825L10.6688 4.37825C10.3994 4.18002 10.1095 4.0113 9.80405 3.875L9.1043 3.56825L8.76155 2H7.23905L6.89405 3.569L6.19655 3.875C5.89069 4.00896 5.60066 4.17648 5.3318 4.3745L4.71605 4.8245L3.18605 4.337L2.4233 5.66L3.61055 6.74075L3.52655 7.5005C3.48905 7.83275 3.48905 8.168 3.52655 8.4995L3.61055 9.2585L2.4233 10.3407L3.18455 11.6593L4.71455 11.1718ZM7.99655 11C7.2009 11 6.43784 10.6839 5.87523 10.1213C5.31262 9.55871 4.99655 8.79565 4.99655 8C4.99655 7.20435 5.31262 6.44129 5.87523 5.87868C6.43784 5.31607 7.2009 5 7.99655 5C8.7922 5 9.55526 5.31607 10.1179 5.87868C10.6805 6.44129 10.9965 7.20435 10.9965 8C10.9965 8.79565 10.6805 9.55871 10.1179 10.1213C9.55526 10.6839 8.7922 11 7.99655 11ZM7.99655 6.5C7.70281 6.5003 7.41563 6.58683 7.17063 6.74886C6.92563 6.91089 6.73359 7.14128 6.61835 7.41146C6.5031 7.68164 6.46971 7.97971 6.52233 8.26869C6.57494 8.55768 6.71125 8.82485 6.91433 9.03707C7.11741 9.24929 7.37833 9.39721 7.66472 9.46249C7.9511 9.52777 8.25035 9.50752 8.52534 9.40427C8.80033 9.30102 9.03895 9.1193 9.2116 8.88167C9.38425 8.64403 9.48333 8.36094 9.49655 8.0675V8.3675V8C9.49655 7.60218 9.33851 7.22064 9.05721 6.93934C8.7759 6.65804 8.39437 6.5 7.99655 6.5Z" fill="white"/>
</svg>
