<svg width="12" height="14" viewBox="0 0 12 14" fill="none" xmlns="http://www.w3.org/2000/svg">
<path d="M2 13.8333H12V12.5H2.008C1.7 12.492 1.33333 12.37 1.33333 11.8333C1.33333 11.2967 1.7 11.1747 2.008 11.1667H12V1.83333C12 1.098 11.402 0.5 10.6667 0.5H2C1.196 0.5 0 1.03267 0 2.5V11.8333C0 13.3007 1.196 13.8333 2 13.8333ZM1.33333 4.5V2.5C1.33333 1.96333 1.7 1.84133 2 1.83333H10.6667V9.83333H1.33333V4.5Z" fill="white"/>
<path d="M3.33398 3.1665H9.33398V4.49984H3.33398V3.1665Z" fill="white"/>
</svg>
