<svg width="16" height="18" viewBox="0 0 16 18" fill="none" xmlns="http://www.w3.org/2000/svg">
<path fill-rule="evenodd" clip-rule="evenodd" d="M14.896 13.1041C14.6722 12.8771 14.3687 12.7496 14.0522 12.7496H9.27919C8.96272 12.7496 8.65921 12.8771 8.43543 13.1041C8.21166 13.331 8.08594 13.6389 8.08594 13.9598V14.3056C8.08594 15.7845 9.45186 17.2448 11.6657 17.2448C13.8795 17.2448 15.2455 15.7845 15.2455 14.3056V13.9598C15.2455 13.6389 15.1197 13.331 14.896 13.1041ZM9.15866 13.8376C9.19062 13.8052 9.23398 13.7869 9.27919 13.7869H14.0522C14.0974 13.7869 14.1408 13.8052 14.1727 13.8376C14.2047 13.87 14.2227 13.914 14.2227 13.9598V14.3056C14.2227 15.1776 13.3517 16.2074 11.6657 16.2074C9.97974 16.2074 9.10873 15.1776 9.10873 14.3056V13.9598C9.10873 13.914 9.12669 13.87 9.15866 13.8376ZM13.1121 8.86206C12.7285 8.47298 12.2082 8.25439 11.6657 8.25439C11.1232 8.25439 10.6029 8.47298 10.2193 8.86206C9.83564 9.25114 9.62012 9.77885 9.62012 10.3291C9.62012 10.8793 9.83564 11.4071 10.2193 11.7961C10.6029 12.1852 11.1232 12.4038 11.6657 12.4038C12.2082 12.4038 12.7285 12.1852 13.1121 11.7961C13.4958 11.4071 13.7113 10.8793 13.7113 10.3291C13.7113 9.77885 13.4958 9.25114 13.1121 8.86206ZM10.9425 9.59558C11.1343 9.40104 11.3944 9.29175 11.6657 9.29175C11.937 9.29175 12.1971 9.40104 12.3889 9.59558C12.5807 9.79012 12.6885 10.054 12.6885 10.3291C12.6885 10.6042 12.5807 10.8681 12.3889 11.0626C12.1971 11.2572 11.937 11.3665 11.6657 11.3665C11.3944 11.3665 11.1343 11.2572 10.9425 11.0626C10.7507 10.8681 10.6429 10.6042 10.6429 10.3291C10.6429 10.054 10.7507 9.79012 10.9425 9.59558ZM8.30061 13.6581C8.27156 13.7551 8.2564 13.8567 8.2564 13.9598V14.3056C8.2564 15.6687 9.52466 17.0719 11.6657 17.0719C13.3656 17.0719 14.5153 16.1874 14.9169 15.1407C14.5153 16.1874 13.3656 17.0718 11.6657 17.0718C9.52468 17.0718 8.25642 15.6687 8.25642 14.3056V13.9598C8.25642 13.8566 8.27156 13.7551 8.30061 13.6581ZM14.0522 13.614H9.27919C9.18877 13.614 9.10206 13.6505 9.03812 13.7153C9.00366 13.7503 8.97734 13.7919 8.96039 13.8373C8.97734 13.7919 9.00366 13.7502 9.03813 13.7153C9.10207 13.6504 9.18879 13.614 9.27921 13.614H14.0522C14.1426 13.614 14.2294 13.6504 14.2933 13.7153C14.3572 13.7801 14.3932 13.8681 14.3932 13.9598V14.3056C14.3932 14.5027 14.3548 14.7033 14.2796 14.8981C14.3548 14.7033 14.3931 14.5028 14.3931 14.3056V13.9598C14.3931 13.8681 14.3572 13.7802 14.2933 13.7153C14.2293 13.6505 14.1426 13.614 14.0522 13.614ZM9.91532 9.64706C9.83364 9.86269 9.79059 10.0936 9.79059 10.3291C9.79059 10.8335 9.98814 11.3172 10.3398 11.6739C10.6914 12.0305 11.1684 12.2309 11.6657 12.2309C12.163 12.2309 12.64 12.0305 12.9916 11.6739C13.1791 11.4837 13.3228 11.2574 13.4161 11.0111C13.3228 11.2574 13.1791 11.4837 12.9916 11.6738C12.64 12.0305 12.163 12.2309 11.6657 12.2309C11.1684 12.2309 10.6915 12.0305 10.3398 11.6738C9.98816 11.3172 9.7906 10.8334 9.7906 10.3291C9.7906 10.0936 9.83365 9.86268 9.91532 9.64706ZM11.6657 9.11885C11.3492 9.11885 11.0457 9.24636 10.8219 9.47333C10.7022 9.59478 10.6105 9.7394 10.5512 9.89679C10.6105 9.73938 10.7022 9.59475 10.822 9.47328C11.0457 9.24632 11.3492 9.11881 11.6657 9.11881C11.9822 9.11881 12.2857 9.24632 12.5095 9.47328C12.7333 9.70025 12.859 10.0081 12.859 10.3291C12.859 10.4808 12.8309 10.6296 12.7776 10.7683C12.8309 10.6296 12.859 10.4808 12.859 10.3291C12.859 10.0081 12.7332 9.70029 12.5095 9.47333C12.2857 9.24636 11.9822 9.11885 11.6657 9.11885Z" fill="white"/>
<path fill-rule="evenodd" clip-rule="evenodd" d="M14.0532 12.6617C14.3927 12.6617 14.7183 12.7985 14.9584 13.042C15.1985 13.2855 15.3333 13.6157 15.3333 13.9601V14.3059C15.3333 15.8439 13.9174 17.3332 11.6667 17.3332C9.41589 17.3332 8 15.8439 8 14.3059V13.9601C8 13.6157 8.13487 13.2855 8.37495 13.042C8.61503 12.7985 8.94064 12.6617 9.28016 12.6617H14.0532ZM9.28016 13.8753C9.258 13.8753 9.23674 13.8843 9.22107 13.9002C9.2054 13.916 9.1966 13.9376 9.1966 13.9601V14.3059C9.1966 15.1156 10.0142 16.1195 11.6667 16.1195C13.3191 16.1195 14.1367 15.1156 14.1367 14.3059V13.9601C14.1367 13.9376 14.1279 13.916 14.1123 13.9002C14.0966 13.8843 14.0753 13.8753 14.0532 13.8753H9.28016ZM11.6667 8.1665C12.2322 8.1665 12.7746 8.39437 13.1746 8.79999C13.5745 9.2056 13.7992 9.75573 13.7992 10.3293C13.7992 10.903 13.5745 11.4531 13.1746 11.8587C12.7746 12.2643 12.2322 12.4922 11.6667 12.4922C11.1011 12.4922 10.5587 12.2643 10.1588 11.8587C9.75886 11.4531 9.53418 10.903 9.53418 10.3293C9.53418 9.75573 9.75886 9.2056 10.1588 8.79999C10.5587 8.39437 11.1011 8.1665 11.6667 8.1665ZM11.6667 9.38014C11.4185 9.38014 11.1804 9.48014 11.0049 9.65816C10.8294 9.83617 10.7308 10.0776 10.7308 10.3293C10.7308 10.5811 10.8294 10.8225 11.0049 11.0005C11.1804 11.1786 11.4185 11.2786 11.6667 11.2786C11.9149 11.2786 12.1529 11.1786 12.3284 11.0005C12.504 10.8225 12.6026 10.5811 12.6026 10.3293C12.6026 10.0776 12.504 9.83617 12.3284 9.65816C12.1529 9.48014 11.9149 9.38014 11.6667 9.38014ZM14.0532 12.7498C14.3696 12.7498 14.6732 12.8773 14.8969 13.1043C15.1207 13.3313 15.2464 13.6391 15.2464 13.9601V14.3059C15.2464 15.7847 13.8805 17.245 11.6667 17.245C9.45283 17.245 8.0869 15.7847 8.0869 14.3059V13.9601C8.0869 13.6391 8.21262 13.3313 8.4364 13.1043C8.66018 12.8773 8.96369 12.7498 9.28016 12.7498H14.0532ZM9.28016 13.7872C9.23495 13.7872 9.19159 13.8054 9.15962 13.8378C9.12765 13.8703 9.10969 13.9142 9.10969 13.9601V14.3059C9.10969 15.1778 9.98071 16.2077 11.6667 16.2077C13.3526 16.2077 14.2236 15.1778 14.2236 14.3059V13.9601C14.2236 13.9142 14.2057 13.8703 14.1737 13.8378C14.1417 13.8054 14.0984 13.7872 14.0532 13.7872H9.28016ZM11.6667 8.25464C12.2092 8.25464 12.7295 8.47323 13.1131 8.86231C13.4967 9.25139 13.7122 9.7791 13.7122 10.3293C13.7122 10.8796 13.4967 11.4073 13.1131 11.7964C12.7295 12.1855 12.2092 12.4041 11.6667 12.4041C11.1241 12.4041 10.6038 12.1855 10.2202 11.7964C9.8366 11.4073 9.62109 10.8796 9.62109 10.3293C9.62109 9.7791 9.8366 9.25139 10.2202 8.86231C10.6038 8.47323 11.1241 8.25464 11.6667 8.25464ZM11.6667 9.292C11.3954 9.292 11.1353 9.40129 10.9434 9.59583C10.7516 9.79037 10.6439 10.0542 10.6439 10.3293C10.6439 10.6045 10.7516 10.8683 10.9434 11.0629C11.1353 11.2574 11.3954 11.3667 11.6667 11.3667C11.9379 11.3667 12.1981 11.2574 12.3899 11.0629C12.5817 10.8683 12.6895 10.6045 12.6895 10.3293C12.6895 10.0542 12.5817 9.79037 12.3899 9.59583C12.1981 9.40129 11.9379 9.292 11.6667 9.292Z" fill="white"/>
<path fill-rule="evenodd" clip-rule="evenodd" d="M8.60185 0.666504H2.12037C1.22917 0.666504 0.5 1.4165 0.5 2.33317V15.6665C0.5 16.5832 1.22106 17.3332 2.11227 17.3332H11.8426C11.8446 17.3332 11.8466 17.3332 11.8486 17.3332H6.98148V15.6665H2.12037V2.33317H7.79167V6.49984H11.8426V7.14798H13.463V5.6665L8.60185 0.666504ZM6.98148 8.99984H3.74074V10.6665H6.98148V8.99984ZM6.98148 12.3332H3.74074V13.9998H6.98148V12.3332Z" fill="white"/>
</svg>
