<svg width="17" height="12" viewBox="0 0 17 12" fill="none" xmlns="http://www.w3.org/2000/svg">
<path d="M14.7926 7.94428V7.30626C14.7926 6.73913 14.6097 6.27328 14.244 5.90869C13.8783 5.54411 13.4111 5.36182 12.8422 5.36182H8.94146V4.05539C9.30715 4.05539 9.61698 3.9288 9.87093 3.67562C10.1249 3.42244 10.2519 3.11355 10.2519 2.74897V1.47293C10.2519 1.10834 10.1249 0.799461 9.87093 0.546278C9.61698 0.293095 9.30715 0.166504 8.94146 0.166504H7.66152C7.29583 0.166504 6.986 0.293095 6.73205 0.546278C6.4781 0.799461 6.35112 1.10834 6.35112 1.47293V2.74897C6.35112 3.11355 6.4781 3.42244 6.73205 3.67562C6.986 3.9288 7.29583 4.05539 7.66152 4.05539V5.36182H3.76078C3.19192 5.36182 2.72464 5.54411 2.35895 5.90869C1.99325 6.27328 1.81041 6.73913 1.81041 7.30626V7.94428C1.44471 7.94428 1.13489 8.07087 0.880932 8.32406C0.626977 8.57724 0.5 8.88612 0.5 9.25071V10.5267C0.5 10.8913 0.626977 11.2002 0.880932 11.4534C1.13489 11.7066 1.44471 11.8332 1.81041 11.8332H3.09034C3.45603 11.8332 3.76586 11.7066 4.01981 11.4534C4.27377 11.2002 4.40075 10.8913 4.40075 10.5267V9.25071C4.40075 8.88612 4.27377 8.57724 4.01981 8.32406C3.76586 8.07087 3.45603 7.94428 3.09034 7.94428V7.30626C3.09034 6.86066 3.31382 6.63786 3.76078 6.63786H7.66152V7.94428C7.29583 7.94428 6.986 8.07087 6.73205 8.32406C6.4781 8.57724 6.35112 8.88612 6.35112 9.25071V10.5267C6.35112 10.8913 6.4781 11.2002 6.73205 11.4534C6.986 11.7066 7.29583 11.8332 7.66152 11.8332H8.94146C9.30715 11.8332 9.61698 11.7066 9.87093 11.4534C10.1249 11.2002 10.2519 10.8913 10.2519 10.5267V9.25071C10.2519 8.88612 10.1249 8.57724 9.87093 8.32406C9.61698 8.07087 9.30715 7.94428 8.94146 7.94428V6.63786H12.8422C13.2892 6.63786 13.5126 6.86066 13.5126 7.30626V7.94428C13.1469 7.94428 12.8371 8.07087 12.5832 8.32406C12.3292 8.57724 12.2022 8.88612 12.2022 9.25071V10.5267C12.2022 10.8913 12.3292 11.2002 12.5832 11.4534C12.8371 11.7066 13.1469 11.8332 13.5126 11.8332H14.7926C15.1583 11.8332 15.4681 11.7066 15.722 11.4534C15.976 11.2002 16.103 10.8913 16.103 10.5267V9.25071C16.103 8.88612 15.976 8.57724 15.722 8.32406C15.4681 8.07087 15.1583 7.94428 14.7926 7.94428ZM7.66152 1.47293H8.94146V2.74897H7.66152V1.47293ZM3.09034 10.5267H1.81041V9.25071H3.09034V10.5267ZM8.94146 10.5267H7.66152V9.25071H8.94146V10.5267ZM13.5126 10.5267V9.25071H14.7926V10.5267H13.5126Z" fill="white"/>
</svg>
