<svg width="15" height="17" viewBox="0 0 15 17" fill="none" xmlns="http://www.w3.org/2000/svg">
<path fill-rule="evenodd" clip-rule="evenodd" d="M1.35003 0.0999756H10.4411C10.7725 0.100307 11.0903 0.232099 11.3246 0.46643C11.559 0.700761 11.6908 1.01849 11.6911 1.34988V7.14554H10.3274V1.46363H1.46366V14.8729H4.87281V16.2366H1.35003C1.01863 16.2363 0.700792 16.1045 0.466461 15.8701C0.23213 15.6358 0.100337 15.3181 0.100006 14.9867V1.35C0.100337 1.0186 0.23213 0.700761 0.466461 0.46643C0.700792 0.232099 1.01863 0.100306 1.35003 0.0999756ZM5.21372 2.37274H6.57738V3.61731C6.7321 3.66385 6.88162 3.7262 7.02358 3.80336L7.90467 2.92227L8.86881 3.8864L7.98772 4.76748C8.0649 4.90943 8.12724 5.05896 8.17377 5.21369H9.41833V6.57735H8.17377C8.12724 6.73208 8.0649 6.88161 7.98772 7.02356L8.8688 7.90464L7.90467 8.86877L7.02358 7.98768C6.88162 8.06484 6.7321 8.12719 6.57738 8.17373V9.4183H5.21372V8.17373C5.059 8.12719 4.90948 8.06484 4.76752 7.98768L3.88643 8.86877L2.9223 7.90464L3.80338 7.02356C3.72621 6.88161 3.66386 6.73208 3.61733 6.57735H2.37277V5.21369H3.61733C3.66386 5.05896 3.72621 4.90943 3.80338 4.76748L2.9223 3.8864L3.88643 2.92227L4.76752 3.80336C4.90948 3.7262 5.059 3.66385 5.21372 3.61731V2.37274ZM14.8201 10.0393L13.1156 8.33475C13.009 8.22823 12.8645 8.16839 12.7138 8.16839C12.5632 8.16839 12.4187 8.22823 12.3121 8.33475L7.03193 13.6149V16.1229H9.53993L14.8201 10.8427C14.9266 10.7362 14.9865 10.5917 14.9865 10.441C14.9865 10.2904 14.9266 10.1459 14.8201 10.0393ZM5.71553 4.99053C5.89452 4.95493 6.08005 4.9732 6.24866 5.04304C6.41727 5.11288 6.56139 5.23115 6.66278 5.3829C6.76413 5.53458 6.81825 5.7129 6.81829 5.89533C6.81804 6.14004 6.72073 6.37466 6.54769 6.54769C6.37466 6.72073 6.14004 6.81804 5.89533 6.81829C5.7129 6.81825 5.53458 6.76413 5.3829 6.66278C5.23115 6.56139 5.11288 6.41727 5.04304 6.24866C4.9732 6.08005 4.95493 5.89452 4.99053 5.71553C5.02614 5.53653 5.11402 5.37212 5.24307 5.24307C5.37212 5.11402 5.53653 5.02614 5.71553 4.99053ZM12.7138 11.0401L12.1148 10.4411L12.7138 9.84206L13.3129 10.4411L12.7138 11.0401ZM8.38194 14.773V14.174L11.0093 11.5466L11.6083 12.1457L8.98096 14.773H8.38194Z" fill="white"/>
</svg>
