<svg width="248" height="248" viewBox="0 0 248 248" fill="none" xmlns="http://www.w3.org/2000/svg">
<circle opacity="0.1" cx="124" cy="124" r="124" fill="#BDBDBD"/>
<path fill-rule="evenodd" clip-rule="evenodd" d="M94.2417 79.6855H188.303C194.061 79.6855 198.751 84.3756 198.751 90.1339V173.747C198.751 179.505 194.061 184.195 188.303 184.195H52.4483C46.69 184.195 42 179.505 42 173.747V79.6855V74.4483C42 68.664 46.69 64 52.4483 64H83.7934C89.5517 64 94.2417 68.69 94.2417 74.4483V79.6855Z" fill="#FDDD1C"/>
<path fill-rule="evenodd" clip-rule="evenodd" d="M47.2119 173.747V111.708C47.2119 108.842 49.5309 106.497 52.397 106.471H52.4491H81.2667H120.376V178.984H102.242H81.2667H52.4491C49.5569 178.984 47.2119 176.639 47.2119 173.747ZM193.541 173.747V111.708C193.541 108.842 191.222 106.497 188.356 106.471H188.304H159.486H120.376V178.984H138.511H159.486H188.304C191.196 178.984 193.541 176.639 193.541 173.747Z" fill="url(#paint0_linear_2210_99019)"/>
<path d="M100 128V169H139V128H100ZM108.204 141.4L111.95 137.889L119.5 144.989L127.05 137.889L130.796 141.4L123.245 148.5L130.796 155.6L127.05 159.111L119.5 152.011L111.95 159.111L108.204 155.6L115.755 148.5L108.204 141.4Z" fill="white"/>
<path d="M131.819 117.675L130.356 115H108.644L107.181 117.675H96V125H143V117.675H131.819Z" fill="white"/>
<defs>
<linearGradient id="paint0_linear_2210_99019" x1="180.831" y1="161.652" x2="115.682" y2="53.3942" gradientUnits="userSpaceOnUse">
<stop stop-color="#FDDD1C"/>
<stop offset="1" stop-color="#FFF200"/>
</linearGradient>
</defs>
</svg>
