<svg width="248" height="248" viewBox="0 0 248 248" fill="none"
    xmlns="http://www.w3.org/2000/svg">
    <circle opacity="0.1" cx="124" cy="124" r="124" fill="#BDBDBD"/>
    <path fill-rule="evenodd" clip-rule="evenodd" d="M93.554 79.4814H159.228L118.085 135.449L100.942 111.256L92.6847 117.099L113.884 147.038L117.94 152.785L122.093 147.135L171.735 79.578V79.4814H186.753C192.451 79.4814 197.087 84.1172 197.087 89.8154V172.632C197.087 178.33 192.451 182.966 186.753 182.966H52.1699C46.4717 182.966 41.8359 178.33 41.8359 172.632V79.4814V74.3145C41.8359 68.6163 46.4717 63.9805 52.1699 63.9805H83.22C88.9182 63.9805 93.554 68.6163 93.554 74.3145V79.4814Z" fill="#FDDD1C"/>
    <path fill-rule="evenodd" clip-rule="evenodd" d="M126.775 83.8276C128.755 90.6365 129.817 97.8799 129.817 105.316C129.817 111.015 129.189 116.616 128.03 121.976L118.131 135.449L100.94 111.256L92.6824 117.099L113.882 147.039L115.813 149.743C106.59 162.974 93.3102 173.211 77.8093 178.62H52.1676C50.5257 178.62 49.0288 177.944 47.9181 176.881C46.8557 175.819 46.1797 174.274 46.1797 172.632V83.8276H93.5999H125.423H126.775Z" fill="url(#paint0_linear_843_83823)"/>
    <path fill-rule="evenodd" clip-rule="evenodd" d="M171.732 79.5296L122.09 147.087L117.937 152.736L113.881 147.038L92.6819 117.099L84.4727 122.942L113.736 164.278L117.792 170.024L121.945 164.374L169.221 100.053L171.732 96.6241L175.691 91.2156L196.842 62.4351L197.905 60.9864L189.744 54.9985L184.287 62.4351L173.712 76.8254L171.732 79.5296Z" fill="#00BA75"/>
    <defs>
        <linearGradient id="paint0_linear_843_83823" x1="122.553" y1="155.963" x2="30.8838" y2="89.3613" gradientUnits="userSpaceOnUse">
            <stop stop-color="#FDDD1C"/>
            <stop offset="1" stop-color="#FFF200"/>
        </linearGradient>
    </defs>
</svg>
