<svg width="38" height="38" viewBox="0 0 38 38" fill="none" xmlns="http://www.w3.org/2000/svg">
<circle cx="19" cy="19" r="19" fill="#4F4F4F"/>
<path d="M29.1984 14.8611H9.74696C9.50224 14.8611 9.26753 14.7639 9.09448 14.5909C8.92144 14.4178 8.82422 14.1831 8.82422 13.9384C8.82422 13.6936 8.92144 13.4589 9.09448 13.2859C9.26753 13.1128 9.50224 13.0156 9.74696 13.0156H29.1984C29.4432 13.0156 29.6779 13.1128 29.8509 13.2859C30.024 13.4589 30.1212 13.6936 30.1212 13.9384C30.1212 14.1831 30.024 14.4178 29.8509 14.5909C29.6779 14.7639 29.4432 14.8611 29.1984 14.8611Z" fill="white"/>
<path d="M29.1986 19.9129H16.5477C16.303 19.9129 16.0683 19.8157 15.8953 19.6426C15.7222 19.4696 15.625 19.2349 15.625 18.9901C15.625 18.7454 15.7222 18.5107 15.8953 18.3376C16.0683 18.1646 16.303 18.0674 16.5477 18.0674H29.1986C29.4433 18.0674 29.678 18.1646 29.8511 18.3376C30.0241 18.5107 30.1213 18.7454 30.1213 18.9901C30.1213 19.2349 30.0241 19.4696 29.8511 19.6426C29.678 19.8157 29.4433 19.9129 29.1986 19.9129Z" fill="white"/>
<path d="M29.1981 24.9646H23.4032C23.1585 24.9646 22.9238 24.8674 22.7507 24.6944C22.5777 24.5213 22.4805 24.2866 22.4805 24.0419C22.4805 23.7972 22.5777 23.5625 22.7507 23.3894C22.9238 23.2164 23.1585 23.1191 23.4032 23.1191H29.1981C29.4428 23.1191 29.6775 23.2164 29.8505 23.3894C30.0236 23.5625 30.1208 23.7972 30.1208 24.0419C30.1208 24.2866 30.0236 24.5213 29.8505 24.6944C29.6775 24.8674 29.4428 24.9646 29.1981 24.9646Z" fill="white"/>
</svg>
