<svg width="84" height="84" viewBox="0 0 84 84" fill="none" xmlns="http://www.w3.org/2000/svg">
<path fill-rule="evenodd" clip-rule="evenodd" d="M79.5442 7.93955H49.7873V0.927734L0.875 8.47711V74.6502L49.7873 83.0749V72.682H79.5442C80.4454 72.7277 81.328 72.4146 81.9991 71.8113C82.6701 71.208 83.0749 70.3635 83.125 69.4625V11.1561C83.0742 10.2557 82.669 9.41192 81.9981 8.80923C81.3271 8.20653 80.4449 7.89387 79.5442 7.93955ZM80.0142 69.9972H49.6874L49.6375 64.4482H56.9431V57.9857H49.5817L49.5464 54.167H56.9431V47.7045H49.4906L49.4554 43.8857H56.9431V37.4232H49.4319V33.6045H56.9431V27.142H49.4319V23.3232H56.9431V16.8607H49.4319V10.9857H80.0142V69.9972Z" fill="black"/>
<path d="M61.0547 16.8521H73.7535V23.3146H61.0547V16.8521Z" fill="black"/>
<path d="M61.0547 27.1362H73.7535V33.5987H61.0547V27.1362Z" fill="black"/>
<path d="M61.0547 37.4204H73.7535V43.8829H61.0547V37.4204Z" fill="black"/>
<path d="M61.0547 47.7046H73.7535V54.1671H61.0547V47.7046Z" fill="black"/>
<path d="M61.0547 57.9888H73.7535V64.4513H61.0547V57.9888Z" fill="black"/>
<path fill-rule="evenodd" clip-rule="evenodd" d="M13.644 26.3522L19.9479 25.9909L23.9106 36.8861L28.593 25.5415L34.8968 25.1802L27.2417 40.6491L34.8968 56.1561L28.2316 55.7067L23.7314 43.8862L19.2282 55.2572L13.1035 54.7167L20.2181 41.0192L13.644 26.3522Z" fill="white"/>
</svg>
