<svg width="83" height="83" viewBox="0 0 83 83" fill="none" xmlns="http://www.w3.org/2000/svg">
<path d="M49.25 26H13.0833C12.3982 26 11.7411 25.7278 11.2566 25.2434C10.7722 24.7589 10.5 24.1018 10.5 23.4167V13.0833C10.5 12.3982 10.7722 11.7411 11.2566 11.2566C11.7411 10.7722 12.3982 10.5 13.0833 10.5H49.25C49.9351 10.5 50.5922 10.7722 51.0767 11.2566C51.5612 11.7411 51.8333 12.3982 51.8333 13.0833V23.4167C51.8333 24.1018 51.5612 24.7589 51.0767 25.2434C50.5922 25.7278 49.9351 26 49.25 26ZM15.6667 20.8333H46.6667V15.5117H15.6667V20.8333Z" fill="black"/>
<path d="M49.25 31.373H13.0833C12.3982 31.373 11.7411 31.6452 11.2566 32.1297C10.7722 32.6142 10.5 33.2712 10.5 33.9564V44.083C10.5 44.7682 10.7722 45.4253 11.2566 45.9097C11.7411 46.3942 12.3982 46.6664 13.0833 46.6664H42.43L51.8333 37.108V33.9564C51.8333 33.2712 51.5612 32.6142 51.0767 32.1297C50.5922 31.6452 49.9351 31.373 49.25 31.373ZM46.6667 41.4997H15.6667V36.333H46.6667V41.4997Z" fill="black"/>
<path d="M23.571 76.4007V76.2457L24.3977 72.6548H5.33268V5.33317H56.9993V31.8123L62.166 26.9298V2.74984C62.166 2.06469 61.8938 1.40761 61.4094 0.923145C60.9249 0.438676 60.2678 0.166504 59.5827 0.166504H2.74935C2.06421 0.166504 1.40713 0.438676 0.922656 0.923145C0.438187 1.40761 0.166016 2.06469 0.166016 2.74984V75.0832C0.166016 75.7683 0.438187 76.4254 0.922656 76.9099C1.40713 77.3943 2.06421 77.6665 2.74935 77.6665H23.416C23.4373 77.2414 23.4891 76.8184 23.571 76.4007V76.4007Z" fill="black"/>
<path d="M10.5 64.5947C10.5 65.2798 10.7722 65.9369 11.2566 66.4214C11.7411 66.9058 12.3982 67.178 13.0833 67.178H25.5867L26.3617 63.8197L26.6975 62.3988V62.2697H15.6667V56.9997H32.045L37.2117 51.833H13.0833C12.3982 51.833 11.7411 52.1052 11.2566 52.5896C10.7722 53.0741 10.5 53.7312 10.5 54.4163V64.5947Z" fill="black"/>
<path d="M81.5144 38.0643L72.8086 29.3585C72.4222 28.971 71.9632 28.6636 71.4578 28.4539C70.9525 28.2442 70.4107 28.1362 69.8635 28.1362C69.3164 28.1362 68.7746 28.2442 68.2693 28.4539C67.7639 28.6636 67.3049 28.971 66.9186 29.3585L31.501 64.9826L28.5819 77.4085C28.4726 77.9445 28.4701 78.4969 28.5747 79.0339C28.6792 79.5709 28.8886 80.082 29.191 80.538C29.4933 80.9939 29.8827 81.3858 30.3367 81.691C30.7907 81.9962 31.3005 82.2089 31.8369 82.3168C32.1032 82.3435 32.3714 82.3435 32.6377 82.3168C32.9542 82.3684 33.277 82.3684 33.5935 82.3168L46.1227 79.5526L81.5144 44.0835C81.901 43.6993 82.2079 43.2425 82.4172 42.7393C82.6266 42.2361 82.7344 41.6964 82.7344 41.1514C82.7344 40.6063 82.6266 40.0667 82.4172 39.5635C82.2079 39.0603 81.901 38.6034 81.5144 38.2193V38.0643ZM43.4877 74.851L34.0327 76.9435L36.3319 67.566L62.8886 40.7251L70.1736 48.0101L43.4877 74.851ZM73.0927 45.091L65.8077 37.806L69.9152 33.7501L77.2519 41.0868L73.0927 45.091Z" fill="black"/>
</svg>
