<svg width="21" height="16" viewBox="0 0 21 16" fill="none" xmlns="http://www.w3.org/2000/svg">
<path fill-rule="evenodd" clip-rule="evenodd" d="M16.9658 0.503906H4.25993C3.35169 0.503906 2.61286 1.05949 2.61286 1.74248V14.482H1.43637C1.04648 14.482 0.730469 14.7196 0.730469 15.0128C0.730469 15.306 1.04648 15.5436 1.43637 15.5436H19.7893C20.1792 15.5436 20.4952 15.306 20.4952 15.0128C20.4952 14.7196 20.1792 14.482 19.7893 14.482H18.6129V1.74248C18.6129 1.05949 17.8738 0.503906 16.9658 0.503906ZM17.2011 14.482V1.74248C17.2011 1.64657 17.0933 1.56552 16.9658 1.56552H4.25989C4.13239 1.56552 4.02462 1.64657 4.02462 1.74248V14.482H6.61286V11.6509C6.61286 11.3578 6.92887 11.1201 7.31875 11.1201H13.6717C14.0616 11.1201 14.3775 11.3577 14.3775 11.6509V14.482H17.2011ZM12.9658 14.482V12.1818H8.02461V14.482H12.9658ZM8.96579 2.62716H6.14227C5.75239 2.62716 5.43637 2.8648 5.43637 3.15798V5.28122C5.43637 5.5744 5.75239 5.81204 6.14227 5.81204H8.96579C9.35567 5.81204 9.67169 5.5744 9.67169 5.28122V3.15798C9.67169 2.8648 9.35567 2.62716 8.96579 2.62716ZM8.25993 4.75042H6.84817V3.6888H8.25993V4.75042ZM12.0247 2.62716H14.8482C15.2381 2.62716 15.554 2.8648 15.5541 3.15798V5.28122C15.5541 5.5744 15.2381 5.81204 14.8482 5.81204H12.0247C11.6348 5.81204 11.3188 5.5744 11.3188 5.28122V3.15798C11.3188 2.8648 11.6348 2.62716 12.0247 2.62716ZM12.7305 4.75042H14.1423V3.6888H12.7305V4.75042ZM8.96579 6.87362H6.14227C5.75239 6.87362 5.43637 7.11126 5.43637 7.40444V9.52767C5.43637 9.82086 5.75239 10.0585 6.14227 10.0585H8.96579C9.35567 10.0585 9.67169 9.82086 9.67169 9.52767V7.40444C9.67169 7.11126 9.35567 6.87362 8.96579 6.87362ZM8.25993 8.99685H6.84817V7.93524H8.25993V8.99685ZM12.0247 6.87362H14.8482C15.2381 6.87362 15.554 7.11126 15.5541 7.40444V9.52767C15.5541 9.82086 15.2381 10.0585 14.8482 10.0585H12.0247C11.6348 10.0585 11.3188 9.82086 11.3188 9.52767V7.40444C11.3188 7.11126 11.6348 6.87362 12.0247 6.87362ZM12.7305 8.99685H14.1423V7.93524H12.7305V8.99685Z" fill="#9EE09D"/>
<path d="M2.61286 14.482V14.632H2.76286V14.482H2.61286ZM18.6129 14.482H18.4629V14.632H18.6129V14.482ZM17.2011 14.482V14.632H17.3511V14.482H17.2011ZM4.02462 14.482H3.87462V14.632H4.02462V14.482ZM6.61286 14.482V14.632H6.76286V14.482H6.61286ZM14.3775 14.482H14.2275V14.632H14.3775V14.482ZM12.9658 14.482V14.632H13.1158V14.482H12.9658ZM12.9658 12.1818H13.1158V12.0318H12.9658V12.1818ZM8.02461 12.1818V12.0318H7.87461V12.1818H8.02461ZM8.02461 14.482H7.87461V14.632H8.02461V14.482ZM6.84817 4.75042H6.69817V4.90042H6.84817V4.75042ZM8.25993 4.75042V4.90042H8.40993V4.75042H8.25993ZM6.84817 3.6888V3.5388H6.69817V3.6888H6.84817ZM8.25993 3.6888H8.40993V3.5388H8.25993V3.6888ZM15.5541 3.15798H15.7041V3.15796L15.5541 3.15798ZM14.1423 4.75042V4.90042H14.2923V4.75042H14.1423ZM12.7305 4.75042H12.5805V4.90042H12.7305V4.75042ZM14.1423 3.6888H14.2923V3.5388H14.1423V3.6888ZM12.7305 3.6888V3.5388H12.5805V3.6888H12.7305ZM6.84817 8.99685H6.69817V9.14685H6.84817V8.99685ZM8.25993 8.99685V9.14685H8.40993V8.99685H8.25993ZM6.84817 7.93524V7.78524H6.69817V7.93524H6.84817ZM8.25993 7.93524H8.40993V7.78524H8.25993V7.93524ZM15.5541 7.40444H15.7041V7.40442L15.5541 7.40444ZM14.1423 8.99685V9.14685H14.2923V8.99685H14.1423ZM12.7305 8.99685H12.5805V9.14685H12.7305V8.99685ZM14.1423 7.93524H14.2923V7.78524H14.1423V7.93524ZM12.7305 7.93524V7.78524H12.5805V7.93524H12.7305ZM4.25993 0.653906H16.9658V0.353906H4.25993V0.653906ZM2.76286 1.74248C2.76286 1.45875 2.91601 1.18995 3.18595 0.986958C3.4559 0.783966 3.83532 0.653906 4.25993 0.653906V0.353906C3.77629 0.353906 3.33218 0.501639 3.00565 0.747187C2.67912 0.992732 2.46286 1.34321 2.46286 1.74248H2.76286ZM2.76286 14.482V1.74248H2.46286V14.482H2.76286ZM2.61286 14.332H1.43637V14.632H2.61286V14.332ZM1.43637 14.332C1.21202 14.332 1.00318 14.4002 0.84706 14.5175C0.690882 14.635 0.580469 14.8086 0.580469 15.0128H0.880469C0.880469 14.9238 0.928063 14.832 1.02736 14.7573C1.12673 14.6826 1.27083 14.632 1.43637 14.632V14.332ZM0.580469 15.0128C0.580469 15.217 0.690882 15.3906 0.84706 15.508C1.00318 15.6254 1.21202 15.6936 1.43637 15.6936V15.3936C1.27083 15.3936 1.12673 15.343 1.02736 15.2683C0.928063 15.1936 0.880469 15.1018 0.880469 15.0128H0.580469ZM1.43637 15.6936H19.7893V15.3936H1.43637V15.6936ZM19.7893 15.6936C20.0136 15.6936 20.2225 15.6254 20.3786 15.508C20.5348 15.3906 20.6452 15.217 20.6452 15.0128H20.3452C20.3452 15.1018 20.2976 15.1936 20.1983 15.2683C20.0989 15.343 19.9548 15.3936 19.7893 15.3936V15.6936ZM20.6452 15.0128C20.6452 14.8086 20.5348 14.635 20.3786 14.5175C20.2225 14.4001 20.0137 14.332 19.7893 14.332V14.632C19.9549 14.632 20.099 14.6826 20.1983 14.7573C20.2976 14.832 20.3452 14.9238 20.3452 15.0128H20.6452ZM19.7893 14.332H18.6129V14.632H19.7893V14.332ZM18.4629 1.74248V14.482H18.7629V1.74248H18.4629ZM16.9658 0.653906C17.3903 0.653906 17.7697 0.783963 18.0397 0.986962C18.3097 1.18997 18.4629 1.45877 18.4629 1.74248H18.7629C18.7629 1.3432 18.5465 0.992718 18.22 0.747182C17.8934 0.501643 17.4493 0.353906 16.9658 0.353906V0.653906ZM17.3511 14.482V1.74248H17.0511V14.482H17.3511ZM17.3511 1.74248C17.3511 1.63522 17.2911 1.55054 17.2214 1.49816C17.1511 1.44527 17.0602 1.41552 16.9658 1.41552V1.71552C16.9989 1.71552 17.0256 1.7263 17.0411 1.73791C17.0572 1.75003 17.0511 1.75382 17.0511 1.74248H17.3511ZM16.9658 1.41552H4.25989V1.71552H16.9658V1.41552ZM4.25989 1.41552C4.16546 1.41552 4.07459 1.44527 4.00428 1.49815C3.93465 1.55052 3.87462 1.6352 3.87462 1.74248H4.17462C4.17462 1.75384 4.16847 1.75005 4.1846 1.73792C4.20005 1.7263 4.22682 1.71552 4.25989 1.71552V1.41552ZM3.87462 1.74248V14.482H4.17462V1.74248H3.87462ZM6.61286 14.332H4.02462V14.632H6.61286V14.332ZM6.76286 14.482V11.6509H6.46286V14.482H6.76286ZM6.76286 11.6509C6.76286 11.562 6.81045 11.4701 6.90975 11.3955C7.00911 11.3208 7.15322 11.2701 7.31875 11.2701V10.9701C7.09441 10.9701 6.88556 11.0383 6.72945 11.1557C6.57327 11.2731 6.46286 11.4467 6.46286 11.6509H6.76286ZM7.31875 11.2701H13.6717V10.9701H7.31875V11.2701ZM13.6717 11.2701C13.8372 11.2701 13.9813 11.3208 14.0807 11.3955C14.18 11.4701 14.2275 11.5619 14.2275 11.6509H14.5275C14.5275 11.4467 14.4171 11.2731 14.261 11.1557C14.1049 11.0383 13.896 10.9701 13.6717 10.9701V11.2701ZM14.2275 11.6509V14.482H14.5275V11.6509H14.2275ZM17.2011 14.332H14.3775V14.632H17.2011V14.332ZM13.1158 14.482V12.1818H12.8158V14.482H13.1158ZM12.9658 12.0318H8.02461V12.3318H12.9658V12.0318ZM7.87461 12.1818V14.482H8.17461V12.1818H7.87461ZM12.9658 14.332H8.02461V14.632H12.9658V14.332ZM6.14227 2.77716H8.96579V2.47716H6.14227V2.77716ZM5.58637 3.15798C5.58637 3.06901 5.63397 2.97718 5.73327 2.90251C5.83263 2.82779 5.97673 2.77716 6.14227 2.77716V2.47716C5.91792 2.47716 5.70908 2.54534 5.55296 2.66274C5.39678 2.78018 5.28637 2.95377 5.28637 3.15798H5.58637ZM5.58637 5.28122V3.15798H5.28637V5.28122H5.58637ZM6.14227 5.66204C5.97673 5.66204 5.83263 5.61141 5.73327 5.53669C5.63397 5.46202 5.58637 5.37019 5.58637 5.28122H5.28637C5.28637 5.48543 5.39678 5.65902 5.55296 5.77646C5.70908 5.89386 5.91792 5.96204 6.14227 5.96204V5.66204ZM8.96579 5.66204H6.14227V5.96204H8.96579V5.66204ZM9.52169 5.28122C9.52169 5.37019 9.47409 5.46202 9.37479 5.53669C9.27543 5.61141 9.13132 5.66204 8.96579 5.66204V5.96204C9.19014 5.96204 9.39898 5.89386 9.5551 5.77646C9.71127 5.65902 9.82169 5.48543 9.82169 5.28122H9.52169ZM9.52169 3.15798V5.28122H9.82169V3.15798H9.52169ZM8.96579 2.77716C9.13132 2.77716 9.27543 2.82779 9.37479 2.90251C9.47409 2.97718 9.52169 3.06901 9.52169 3.15798H9.82169C9.82169 2.95377 9.71127 2.78018 9.5551 2.66274C9.39898 2.54534 9.19014 2.47716 8.96579 2.47716V2.77716ZM6.84817 4.90042H8.25993V4.60042H6.84817V4.90042ZM6.69817 3.6888V4.75042H6.99817V3.6888H6.69817ZM8.25993 3.5388H6.84817V3.8388H8.25993V3.5388ZM8.40993 4.75042V3.6888H8.10993V4.75042H8.40993ZM14.8482 2.47716H12.0247V2.77716H14.8482V2.47716ZM15.7041 3.15796C15.704 2.95376 15.5936 2.78018 15.4375 2.66274C15.2814 2.54534 15.0725 2.47716 14.8482 2.47716V2.77716C15.0137 2.77716 15.1578 2.82779 15.2572 2.90251C15.3565 2.97718 15.4041 3.06901 15.4041 3.158L15.7041 3.15796ZM15.7041 5.28122V3.15798H15.4041V5.28122H15.7041ZM14.8482 5.96204C15.0725 5.96204 15.2814 5.89386 15.4375 5.77646C15.5937 5.65902 15.7041 5.48543 15.7041 5.28122H15.4041C15.4041 5.37019 15.3565 5.46202 15.2572 5.53669C15.1578 5.61141 15.0137 5.66204 14.8482 5.66204V5.96204ZM12.0247 5.96204H14.8482V5.66204H12.0247V5.96204ZM11.1688 5.28122C11.1688 5.48543 11.2792 5.65902 11.4353 5.77646C11.5915 5.89386 11.8003 5.96204 12.0247 5.96204V5.66204C11.8591 5.66204 11.715 5.61141 11.6157 5.53669C11.5164 5.46202 11.4688 5.37019 11.4688 5.28122H11.1688ZM11.1688 3.15798V5.28122H11.4688V3.15798H11.1688ZM12.0247 2.47716C11.8003 2.47716 11.5915 2.54534 11.4353 2.66274C11.2792 2.78018 11.1688 2.95377 11.1688 3.15798H11.4688C11.4688 3.06901 11.5164 2.97718 11.6157 2.90251C11.715 2.82779 11.8591 2.77716 12.0247 2.77716V2.47716ZM14.1423 4.60042H12.7305V4.90042H14.1423V4.60042ZM13.9923 3.6888V4.75042H14.2923V3.6888H13.9923ZM12.7305 3.8388H14.1423V3.5388H12.7305V3.8388ZM12.8805 4.75042V3.6888H12.5805V4.75042H12.8805ZM6.14227 7.02362H8.96579V6.72362H6.14227V7.02362ZM5.58637 7.40444C5.58637 7.31547 5.63397 7.22365 5.73327 7.14897C5.83263 7.07425 5.97673 7.02362 6.14227 7.02362V6.72362C5.91792 6.72362 5.70908 6.79181 5.55296 6.9092C5.39678 7.02665 5.28637 7.20023 5.28637 7.40444H5.58637ZM5.58637 9.52767V7.40444H5.28637V9.52767H5.58637ZM6.14227 9.9085C5.97673 9.9085 5.83263 9.85786 5.73327 9.78314C5.63397 9.70847 5.58637 9.61664 5.58637 9.52767H5.28637C5.28637 9.73189 5.39678 9.90547 5.55296 10.0229C5.70908 10.1403 5.91792 10.2085 6.14227 10.2085V9.9085ZM8.96579 9.9085H6.14227V10.2085H8.96579V9.9085ZM9.52169 9.52767C9.52169 9.61664 9.47409 9.70847 9.37479 9.78314C9.27543 9.85786 9.13132 9.9085 8.96579 9.9085V10.2085C9.19014 10.2085 9.39898 10.1403 9.55509 10.0229C9.71127 9.90547 9.82169 9.73189 9.82169 9.52767H9.52169ZM9.52169 7.40444V9.52767H9.82169V7.40444H9.52169ZM8.96579 7.02362C9.13132 7.02362 9.27543 7.07425 9.37479 7.14897C9.47409 7.22365 9.52169 7.31547 9.52169 7.40444H9.82169C9.82169 7.20023 9.71127 7.02665 9.55509 6.9092C9.39898 6.79181 9.19014 6.72362 8.96579 6.72362V7.02362ZM6.84817 9.14685H8.25993V8.84685H6.84817V9.14685ZM6.69817 7.93524V8.99685H6.99817V7.93524H6.69817ZM8.25993 7.78524H6.84817V8.08524H8.25993V7.78524ZM8.40993 8.99685V7.93524H8.10993V8.99685H8.40993ZM14.8482 6.72362H12.0247V7.02362H14.8482V6.72362ZM15.7041 7.40442C15.704 7.20022 15.5936 7.02665 15.4375 6.9092C15.2814 6.79181 15.0725 6.72362 14.8482 6.72362V7.02362C15.0137 7.02362 15.1578 7.07425 15.2572 7.14897C15.3565 7.22364 15.4041 7.31548 15.4041 7.40446L15.7041 7.40442ZM15.7041 9.52767V7.40444H15.4041V9.52767H15.7041ZM14.8482 10.2085C15.0725 10.2085 15.2814 10.1403 15.4375 10.0229C15.5937 9.90547 15.7041 9.73189 15.7041 9.52767H15.4041C15.4041 9.61664 15.3565 9.70847 15.2572 9.78314C15.1578 9.85786 15.0137 9.9085 14.8482 9.9085V10.2085ZM12.0247 10.2085H14.8482V9.9085H12.0247V10.2085ZM11.1688 9.52767C11.1688 9.73189 11.2792 9.90547 11.4353 10.0229C11.5915 10.1403 11.8003 10.2085 12.0247 10.2085V9.9085C11.8591 9.9085 11.715 9.85786 11.6157 9.78314C11.5164 9.70847 11.4688 9.61664 11.4688 9.52767H11.1688ZM11.1688 7.40444V9.52767H11.4688V7.40444H11.1688ZM12.0247 6.72362C11.8003 6.72362 11.5915 6.79181 11.4353 6.9092C11.2792 7.02665 11.1688 7.20023 11.1688 7.40444H11.4688C11.4688 7.31547 11.5164 7.22365 11.6157 7.14897C11.715 7.07425 11.8591 7.02362 12.0247 7.02362V6.72362ZM14.1423 8.84685H12.7305V9.14685H14.1423V8.84685ZM13.9923 7.93524V8.99685H14.2923V7.93524H13.9923ZM12.7305 8.08524H14.1423V7.78524H12.7305V8.08524ZM12.8805 8.99685V7.93524H12.5805V8.99685H12.8805Z" fill="#9EE09D"/>
</svg>
