<svg width="17" height="16" viewBox="0 0 17 16" fill="none" xmlns="http://www.w3.org/2000/svg">
<path d="M2.20469 14.1V14.6H2.70469H14.9047H15.4047V14.1V13C15.4047 12.7295 15.2504 12.5182 15.1354 12.3909C15.006 12.2475 14.8352 12.1118 14.6468 11.986C14.2671 11.7325 13.7473 11.4745 13.1484 11.2435C11.9503 10.7814 10.3638 10.4 8.80469 10.4C7.24555 10.4 5.65909 10.7814 4.46101 11.2435C3.8621 11.4745 3.34228 11.7325 2.96254 11.986C2.77414 12.1118 2.60341 12.2475 2.47394 12.3909C2.35896 12.5182 2.20469 12.7295 2.20469 13V14.1ZM8.80469 0.5C9.73295 0.5 10.6232 0.868749 11.2796 1.52513C11.9359 2.1815 12.3047 3.07174 12.3047 4C12.3047 4.92826 11.9359 5.8185 11.2796 6.47487C10.6232 7.13125 9.73295 7.5 8.80469 7.5C7.87643 7.5 6.98619 7.13125 6.32981 6.47487C5.67344 5.8185 5.30469 4.92826 5.30469 4C5.30469 3.07174 5.67344 2.1815 6.32981 1.52513C6.98619 0.868749 7.87643 0.5 8.80469 0.5ZM8.80469 1.5C8.14165 1.5 7.50576 1.76339 7.03692 2.23223C6.56808 2.70107 6.30469 3.33696 6.30469 4C6.30469 4.66304 6.56808 5.29893 7.03692 5.76777C7.50576 6.23661 8.14165 6.5 8.80469 6.5C9.46773 6.5 10.1036 6.23661 10.5725 5.76777C11.0413 5.29893 11.3047 4.66304 11.3047 4C11.3047 3.33696 11.0413 2.70107 10.5725 2.23223C10.1036 1.76339 9.46773 1.5 8.80469 1.5ZM8.80469 9.5C10.0777 9.5 12.0145 9.82094 13.6203 10.463C14.4228 10.7839 15.1112 11.1727 15.5909 11.6159C16.067 12.0557 16.3047 12.5156 16.3047 13V15.5H1.30469V13C1.30469 12.5156 1.54238 12.0557 2.0185 11.6159C2.49822 11.1727 3.18656 10.7839 3.98907 10.463C5.59485 9.82094 7.53171 9.5 8.80469 9.5Z" fill="#9EE09D" stroke="#9EE09D"/>
</svg>
