<svg width="22" height="22" viewBox="0 0 22 22" fill="none" xmlns="http://www.w3.org/2000/svg">
<path fill-rule="evenodd" clip-rule="evenodd" d="M5.27274 2.4091C4.51325 2.4091 3.78487 2.7108 3.24784 3.24784C2.7108 3.78487 2.4091 4.51325 2.4091 5.27274V16.7273C2.4091 17.4868 2.7108 18.2152 3.24784 18.7522C3.78487 19.2892 4.51325 19.591 5.27274 19.591H16.7273C17.4868 19.591 18.2152 19.2892 18.7522 18.7522C19.2892 18.2152 19.591 17.4868 19.591 16.7273V5.27274C19.591 4.51325 19.2892 3.78487 18.7522 3.24784C18.2152 2.7108 17.4868 2.4091 16.7273 2.4091H5.27274ZM1.8979 1.8979C2.79296 1.00284 4.00693 0.5 5.27274 0.5H16.7273C17.9931 0.5 19.2071 1.00284 20.1021 1.8979C20.9972 2.79296 21.5 4.00693 21.5 5.27274V16.7273C21.5 17.9931 20.9972 19.2071 20.1021 20.1021C19.2071 20.9972 17.9931 21.5 16.7273 21.5H5.27274C4.00693 21.5 2.79296 20.9972 1.8979 20.1021C1.00284 19.2071 0.5 17.9931 0.5 16.7273V5.27274C0.5 4.00693 1.00284 2.79296 1.8979 1.8979Z" fill="#C2C9D1"/>
<path fill-rule="evenodd" clip-rule="evenodd" d="M5.27274 2.4091C4.51325 2.4091 3.78487 2.7108 3.24784 3.24784C2.7108 3.78487 2.4091 4.51325 2.4091 5.27274V16.7273C2.4091 17.4868 2.7108 18.2152 3.24784 18.7522C3.78487 19.2892 4.51325 19.591 5.27274 19.591H16.7273C17.4868 19.591 18.2152 19.2892 18.7522 18.7522C19.2892 18.2152 19.591 17.4868 19.591 16.7273V5.27274C19.591 4.51325 19.2892 3.78487 18.7522 3.24784C18.2152 2.7108 17.4868 2.4091 16.7273 2.4091H5.27274ZM1.8979 1.8979C2.79296 1.00284 4.00693 0.5 5.27274 0.5H16.7273C17.9931 0.5 19.2071 1.00284 20.1021 1.8979C20.9972 2.79296 21.5 4.00693 21.5 5.27274V16.7273C21.5 17.9931 20.9972 19.2071 20.1021 20.1021C19.2071 20.9972 17.9931 21.5 16.7273 21.5H5.27274C4.00693 21.5 2.79296 20.9972 1.8979 20.1021C1.00284 19.2071 0.5 17.9931 0.5 16.7273V5.27274C0.5 4.00693 1.00284 2.79296 1.8979 1.8979Z" fill="black" fill-opacity="0.5"/>
<path fill-rule="evenodd" clip-rule="evenodd" d="M7.65903 6.22733C6.86826 6.22733 6.22721 6.86838 6.22721 7.65915C6.22721 8.44993 6.86826 9.09097 7.65903 9.09097C8.4498 9.09097 9.09085 8.44993 9.09085 7.65915C9.09085 6.86838 8.4498 6.22733 7.65903 6.22733ZM4.31812 7.65915C4.31812 5.81402 5.81389 4.31824 7.65903 4.31824C9.50417 4.31824 10.9999 5.81402 10.9999 7.65915C10.9999 9.50429 9.50417 11.0001 7.65903 11.0001C5.81389 11.0001 4.31812 9.50429 4.31812 7.65915Z" fill="#C2C9D1"/>
<path fill-rule="evenodd" clip-rule="evenodd" d="M7.65903 6.22733C6.86826 6.22733 6.22721 6.86838 6.22721 7.65915C6.22721 8.44993 6.86826 9.09097 7.65903 9.09097C8.4498 9.09097 9.09085 8.44993 9.09085 7.65915C9.09085 6.86838 8.4498 6.22733 7.65903 6.22733ZM4.31812 7.65915C4.31812 5.81402 5.81389 4.31824 7.65903 4.31824C9.50417 4.31824 10.9999 5.81402 10.9999 7.65915C10.9999 9.50429 9.50417 11.0001 7.65903 11.0001C5.81389 11.0001 4.31812 9.50429 4.31812 7.65915Z" fill="black" fill-opacity="0.5"/>
<path fill-rule="evenodd" clip-rule="evenodd" d="M14.8178 10.0137C15.2158 10.0129 15.6096 10.095 15.974 10.2549C16.3384 10.4148 16.6655 10.6488 16.9344 10.9421C16.9345 10.9422 16.9344 10.9421 16.9344 10.9421L20.7826 15.1389C20.7936 15.1508 20.8051 15.1634 20.8173 15.1767C20.9407 15.3109 21.1226 15.5087 21.254 15.7397C21.4278 16.0451 21.5 16.367 21.5 16.7275V16.8544C21.5 18.0866 21.0105 19.2682 20.1393 20.1395C19.268 21.0108 18.0863 21.5002 16.8542 21.5002H5.27268C4.89486 21.5002 4.55259 21.2774 4.39974 20.9318C4.24688 20.5863 4.31221 20.1832 4.56636 19.9036L12.7048 10.9509C12.9726 10.6564 13.2988 10.4209 13.6626 10.2596C14.0264 10.0982 14.4198 10.0145 14.8178 10.0137ZM14.1174 12.2351C14.1174 12.2352 14.1174 12.2351 14.1174 12.2351L7.43042 19.5911H16.8542C17.58 19.5911 18.2761 19.3028 18.7893 18.7896C19.3026 18.2763 19.5909 17.5802 19.5909 16.8544V16.7275C19.5909 16.7013 19.5896 16.6841 19.5886 16.6742C19.5819 16.6646 19.5691 16.6472 19.5454 16.6189C19.5078 16.5739 19.4635 16.5254 19.3932 16.4485L19.3728 16.4261L15.5273 12.2324C15.4377 12.1346 15.3286 12.0565 15.2071 12.0032C15.0856 11.9499 14.9544 11.9225 14.8217 11.9228C14.689 11.923 14.5579 11.951 14.4366 12.0047C14.3154 12.0585 14.2066 12.137 14.1174 12.2351Z" fill="#C2C9D1"/>
<path fill-rule="evenodd" clip-rule="evenodd" d="M14.8178 10.0137C15.2158 10.0129 15.6096 10.095 15.974 10.2549C16.3384 10.4148 16.6655 10.6488 16.9344 10.9421C16.9345 10.9422 16.9344 10.9421 16.9344 10.9421L20.7826 15.1389C20.7936 15.1508 20.8051 15.1634 20.8173 15.1767C20.9407 15.3109 21.1226 15.5087 21.254 15.7397C21.4278 16.0451 21.5 16.367 21.5 16.7275V16.8544C21.5 18.0866 21.0105 19.2682 20.1393 20.1395C19.268 21.0108 18.0863 21.5002 16.8542 21.5002H5.27268C4.89486 21.5002 4.55259 21.2774 4.39974 20.9318C4.24688 20.5863 4.31221 20.1832 4.56636 19.9036L12.7048 10.9509C12.9726 10.6564 13.2988 10.4209 13.6626 10.2596C14.0264 10.0982 14.4198 10.0145 14.8178 10.0137ZM14.1174 12.2351C14.1174 12.2352 14.1174 12.2351 14.1174 12.2351L7.43042 19.5911H16.8542C17.58 19.5911 18.2761 19.3028 18.7893 18.7896C19.3026 18.2763 19.5909 17.5802 19.5909 16.8544V16.7275C19.5909 16.7013 19.5896 16.6841 19.5886 16.6742C19.5819 16.6646 19.5691 16.6472 19.5454 16.6189C19.5078 16.5739 19.4635 16.5254 19.3932 16.4485L19.3728 16.4261L15.5273 12.2324C15.4377 12.1346 15.3286 12.0565 15.2071 12.0032C15.0856 11.9499 14.9544 11.9225 14.8217 11.9228C14.689 11.923 14.5579 11.951 14.4366 12.0047C14.3154 12.0585 14.2066 12.137 14.1174 12.2351Z" fill="black" fill-opacity="0.5"/>
</svg>
