<svg width="7" height="11" viewBox="0 0 7 11" fill="none" xmlns="http://www.w3.org/2000/svg">
<path d="M0.7221 -9H-7.05568C-8.12512 -9 -9.00012 -8.1 -9.00012 -7V9C-9.00012 10.1 -8.13484 11 -7.0654 11H4.61099C5.68043 11 6.55543 10.1 6.55543 9V-3L0.7221 -9ZM4.61099 9H-7.05568V-7H-0.250123V-2H4.61099V9Z" fill="black"/>
<path d="M-5.11124 5H2.66654V7H-5.11124V5ZM-5.11124 1H2.66654V3H-5.11124V1Z" fill="black"/>
<path d="M3.49988 11C2.5719 10.9991 1.6822 10.658 1.02603 10.0515C0.369851 9.44491 0.000804514 8.6225 -0.00012207 7.76471V0.647059H1.39988V7.76471C1.39988 8.27954 1.62113 8.77328 2.01495 9.13733C2.40878 9.50137 2.94292 9.70588 3.49988 9.70588C4.05683 9.70588 4.59098 9.50137 4.9848 9.13733C5.37863 8.77328 5.59988 8.27954 5.59988 7.76471V1.94118C5.59988 1.76957 5.52613 1.60498 5.39485 1.48364C5.26358 1.36229 5.08553 1.29412 4.89988 1.29412C4.71423 1.29412 4.53618 1.36229 4.4049 1.48364C4.27363 1.60498 4.19988 1.76957 4.19988 1.94118V8.41176H2.79988V1.94118C2.79988 1.42634 3.02113 0.932599 3.41495 0.568558C3.80878 0.204516 4.34292 0 4.89988 0C5.45683 0 5.99098 0.204516 6.3848 0.568558C6.77863 0.932599 6.99988 1.42634 6.99988 1.94118V7.76471C6.99895 8.6225 6.6299 9.44491 5.97373 10.0515C5.31755 10.658 4.42785 10.9991 3.49988 11Z" fill="black"/>
</svg>
