<svg width="22" height="22" viewBox="0 0 22 22" fill="none" xmlns="http://www.w3.org/2000/svg">
<path fill-rule="evenodd" clip-rule="evenodd" d="M15.8135 1.20628C16.0885 0.931254 16.5344 0.931238 16.8095 1.20624L20.7937 5.19C20.9258 5.32207 21 5.5012 21 5.68799C21 5.87478 20.9258 6.05392 20.7937 6.186L6.186 20.7937C6.05393 20.9258 5.87479 21 5.68801 21H1.70426C1.31531 21 1 20.6847 1 20.2957V16.312C1 16.1252 1.0742 15.9461 1.20626 15.814L15.8135 1.20628ZM16.3116 2.70021L2.40852 16.6037V19.5915H5.3963L19.2997 5.68804L16.3116 2.70021Z" fill="black" stroke="black" stroke-width="0.2" stroke-linejoin="round"/>
<path fill-rule="evenodd" clip-rule="evenodd" d="M11.8293 5.19013C12.1044 4.91512 12.5503 4.91514 12.8253 5.19019L16.8091 9.17441C17.0841 9.44946 17.0841 9.89537 16.809 10.1704C16.534 10.4454 16.0881 10.4454 15.813 10.1703L11.8293 6.1861C11.5543 5.91106 11.5543 5.46514 11.8293 5.19013Z" fill="black" stroke="black" stroke-width="0.2" stroke-linecap="round" stroke-linejoin="round"/>
</svg>
