<svg width="38" height="38" viewBox="0 0 38 38" fill="none" xmlns="http://www.w3.org/2000/svg">
<circle cx="19" cy="19" r="19" fill="#19A46C"/>
<circle cx="19" cy="19" r="19" fill="#19A46C"/>
<path d="M27.7879 9H22.0153C21.7601 9 21.5154 9.10035 21.3349 9.27897C21.1545 9.45759 21.0531 9.69985 21.0531 9.95246C21.0531 10.2051 21.1545 10.4473 21.3349 10.626C21.5154 10.8046 21.7601 10.9049 22.0153 10.9049H25.4654L17.7937 20.4875C17.7018 20.5753 17.6285 20.6804 17.5781 20.7966C17.5277 20.9128 17.5011 21.0378 17.5 21.1643C17.4989 21.2908 17.5233 21.4162 17.5716 21.5332C17.62 21.6503 17.6915 21.7566 17.7818 21.8461C17.8721 21.9355 17.9796 22.0062 18.0978 22.0541C18.216 22.102 18.3427 22.1261 18.4705 22.125C18.5982 22.1239 18.7245 22.0976 18.8418 22.0477C18.9592 21.9978 19.0654 21.9252 19.1541 21.8343L26.8258 12.2517V15.6672C26.8258 15.9198 26.9272 16.1621 27.1076 16.3407C27.288 16.5193 27.5328 16.6197 27.7879 16.6197C28.0431 16.6197 28.2878 16.5193 28.4682 16.3407C28.6487 16.1621 28.75 15.9198 28.75 15.6672V9.95246C28.75 9.69985 28.6487 9.45759 28.4682 9.27897C28.2878 9.10035 28.0431 9 27.7879 9Z" fill="white"/>
<path d="M26.5278 17.905C26.2699 17.905 26.0226 18.0074 25.8403 18.1898C25.658 18.3721 25.5556 18.6194 25.5556 18.8772V25.8412C25.5553 26.1632 25.4273 26.4719 25.1996 26.6996C24.9719 26.9273 24.6632 27.0553 24.3412 27.0556H13.1588C12.8368 27.0553 12.5281 26.9273 12.3004 26.6996C12.0727 26.4719 11.9447 26.1632 11.9444 25.8412V14.6588C11.9447 14.3368 12.0727 14.0281 12.3004 13.8004C12.5281 13.5727 12.8368 13.4447 13.1588 13.4444H19.2079C19.4658 13.4444 19.7131 13.342 19.8954 13.1597C20.0777 12.9774 20.1801 12.7301 20.1801 12.4722C20.1801 12.2144 20.0777 11.9671 19.8954 11.7848C19.7131 11.6024 19.4658 11.5 19.2079 11.5H13.1588C12.3213 11.501 11.5185 11.8342 10.9263 12.4263C10.3342 13.0185 10.001 13.8213 10 14.6588V25.8393C10.0005 26.6771 10.3334 27.4804 10.9256 28.073C11.5178 28.6656 12.321 28.999 13.1588 29H24.3393C25.1771 28.9995 25.9804 28.6666 26.573 28.0744C27.1656 27.4822 27.499 26.679 27.5 25.8412V18.8772C27.5 18.6194 27.3976 18.3721 27.2152 18.1898C27.0329 18.0074 26.7856 17.905 26.5278 17.905Z" fill="white"/>
</svg>
